<?xml version="1.0" standalone="no"?>
<!DOCTYPE svg PUBLIC "-//W3C//DTD SVG 20010904//EN"
 "http://www.w3.org/TR/2001/REC-SVG-20010904/DTD/svg10.dtd">
<svg version="1.0" xmlns="http://www.w3.org/2000/svg"
 width="600.000000pt" height="600.000000pt" viewBox="0 0 600.000000 600.000000"
 preserveAspectRatio="xMidYMid meet">
<metadata>
Created by potrace 1.11, written by Peter Selinger 2001-2013
</metadata>
<g transform="translate(0.000000,600.000000) scale(0.100000,-0.100000)"
fill="#000000" stroke="none">
<path d="M1808 5067 l-1198 -692 0 -1385 1 -1385 1199 -692 1199 -692 1178
680 c648 374 1188 687 1201 695 l22 14 0 1383 0 1382 -1195 690 c-658 380
-1199 691 -1203 692 -4 1 -546 -309 -1204 -690z m2309 -164 l1103 -637 -2
-684 -3 -683 -1099 -635 c-605 -349 -1105 -633 -1112 -632 -18 4 -1434 822
-1433 828 0 3 162 98 361 213 l362 207 351 -205 c193 -113 357 -205 364 -205
14 0 1847 1054 1868 1074 8 8 -231 150 -920 548 -513 295 -937 538 -942 540
-6 2 -504 -282 -1107 -629 -602 -348 -1098 -633 -1102 -633 -3 0 -6 202 -6
448 l0 449 1103 636 c606 350 1104 637 1106 637 2 0 501 -287 1108 -637z
m-570 -1907 c2 -2 -119 -73 -267 -159 l-270 -156 -260 152 c-143 84 -260 155
-260 159 0 3 117 74 260 156 l261 150 267 -150 c147 -82 268 -151 269 -152z"/>
</g>
</svg>
