<svg xmlns="http://www.w3.org/2000/svg" viewBox="0 0 400 400"><defs><style>.a{fill:none;stroke:#ea4e51;stroke-linecap:round;stroke-linejoin:round;stroke-width:17px;}</style></defs><title>psychosocial</title><path class="a" d="M153.87712,363.43663v-43.5831H132.08557a43.58211,43.58211,0,0,1-43.5831-43.5831v-43.5831H60.89984a10.895,10.895,0,0,1-10.16939-14.81826c9.76261-25.30725,18.49376-49.83,27.98035-72.34795"/><path class="a" d="M347.26563,145.52112a136.00717,136.00717,0,0,1-40.85189,126.89947v91.016"/><path class="a" d="M208.35176,210.89578a32.68733,32.68733,0,1,0-32.68733-32.68733A32.688,32.688,0,0,0,208.35176,210.89578Z"/><path class="a" d="M284.62219,145.52112a21.79155,21.79155,0,1,0-21.79156-21.79155A21.792,21.792,0,0,0,284.62219,145.52112Z"/><path class="a" d="M132.08133,145.52112a21.79155,21.79155,0,1,0-21.79155-21.79155A21.792,21.792,0,0,0,132.08133,145.52112Z"/><path class="a" d="M208.35176,145.52112V36.56337"/><path class="a" d="M132.08133,101.938a43.58418,43.58418,0,0,1,43.5831-43.5831h65.37465a43.58433,43.58433,0,0,1,43.58311,43.5831"/></svg>