<svg xmlns="http://www.w3.org/2000/svg" viewBox="0 0 400 400"><defs><style>.a{fill:none;stroke:#6a0d69;stroke-linecap:round;stroke-linejoin:round;stroke-width:17px;}</style></defs><title>guided meditation</title><path class="a" d="M200.28,221.74788a107.99775,107.99775,0,0,1-40-80,105.50418,105.50418,0,0,1,33.14667-73.94666,9.80088,9.80088,0,0,1,13.72,0A105.55678,105.55678,0,0,1,240.28,141.74788,107.99983,107.99983,0,0,1,200.28,221.74788Z"/><path class="a" d="M239.22667,127.81455a114.06561,114.06561,0,0,1,64.8-19.74667,9.97416,9.97416,0,0,1,9.96,9.92,105.41371,105.41371,0,0,1-28.85334,75.50667,107.99778,107.99778,0,0,1-84.85333,28.28"/><path class="a" d="M161.36518,127.96655a113.1166,113.1166,0,0,0-65.33333-19.89333,9.98654,9.98654,0,0,0-9.98667,9.92,105.41828,105.41828,0,0,0,28.81333,75.54666,109.09063,109.09063,0,0,0,85.42667,28.28"/><path class="a" d="M300.02667,234.99983c0,27.61333-44.77334,50-100,50s-100-22.33334-100-50"/><path class="a" d="M337.49333,194.99983a72.49884,72.49884,0,0,1,12.50667,40c0,55.22666-67.16,100-150,100s-150-44.73334-150-99.96a72.517,72.517,0,0,1,12.48-40"/></svg>