<svg xmlns="http://www.w3.org/2000/svg" viewBox="0 0 400 400"><defs><style>.a{fill:none;stroke:#f09b36;stroke-linecap:round;stroke-linejoin:round;stroke-width:17px;}</style></defs><title>internal medicine</title><path class="a" d="M110,350V330a20.00033,20.00033,0,0,1,20-20c10,0,10,40,100,40s120-80,120-120c0-90-60-140-140-140a20.00032,20.00032,0,0,1-20-20V50"/><path class="a" d="M50,349.97467v-20a83.30634,83.30634,0,0,1,80-80c20.08,0,80.52-50.42667,49.61333-120.90667"/><path class="a" d="M130,50V70a60.06781,60.06781,0,0,0,60,60h20"/></svg>