<svg xmlns="http://www.w3.org/2000/svg" viewBox="0 0 400 400"><defs><style>.a{fill:none;stroke:#6a0d69;stroke-linecap:round;stroke-linejoin:round;stroke-width:17px;}</style></defs><title>botanical medicine</title><path class="a" d="M50,188.22688H350"/><path class="a" d="M330,188.22688H70a129.87841,129.87841,0,0,0,70.2,115.37333,10.02849,10.02849,0,0,1,3.86667,14.21333,136.82425,136.82425,0,0,0-8.64,16.30667,9.99991,9.99991,0,0,0,9.12,14.10667H255.45333a10.01374,10.01374,0,0,0,9.12-14.10667,136.93617,136.93617,0,0,0-8.64-16.30667A10.03934,10.03934,0,0,1,259.8,303.60021,129.87985,129.87985,0,0,0,330,188.22688Z"/><path class="a" d="M230,148.22421l52.76-87.93333a17.54742,17.54742,0,0,1,20.6-7.61334h0a17.54865,17.54865,0,0,1,11.09333,22.21334L290,148.22421"/></svg>