<svg id="Layer_1" data-name="Layer 1" xmlns="http://www.w3.org/2000/svg" viewBox="0 0 520 520">
	<defs><style>.cls-1{fill:#2e6b35;}</style>
	</defs>
	<path class="cls-1" d="M431.88,81.52C388.05,133,347,188.42,308.58,244c-46.36,68-89.25,138.24-133,208-5.11,7.95-12.5,13.07-22.72,13.07H116.53c-16.91-6.09-26-42.2-31.38-56.91-8.92-24.27-19.88-52-20.32-77.75-.07-3.91,2.84-11.37,8.52-14.78l34.09-18.75c4.55-2.27,9.78-4,14.21-3.4,18.87,2.4,24.59,52.5,38.63,67.61l136.37-204c18.69-27.63,41.41-66.35,71-82.39,22.75-12.32,49.16-16.08,75-18.18l2.85,9.66C440.06,72.31,437.33,75.38,431.88,81.52Z">
		
	</path>
</svg>