<svg xmlns="http://www.w3.org/2000/svg" viewBox="0 0 400 400"><defs><style>.a{fill:none;stroke:#f09b36;stroke-linecap:round;stroke-linejoin:round;stroke-width:17px;}</style></defs><title>fascial release</title><path class="a" d="M350,112.56667H50"/><path class="a" d="M60.33333,277.5a5.00025,5.00025,0,0,1,5,5"/><path class="a" d="M55.33333,282.5a5,5,0,0,1,5-5"/><path class="a" d="M60.33333,287.43333a5,5,0,0,1-5-5"/><path class="a" d="M65.33333,282.43333a5.00024,5.00024,0,0,1-5,5"/><path class="a" d="M100.33333,227.5a5.00025,5.00025,0,0,1,5,5"/><path class="a" d="M95.33333,232.5a5,5,0,0,1,5-5"/><path class="a" d="M100.33333,237.56667a5,5,0,0,1-5-5"/><path class="a" d="M105.33333,232.56667a5.00025,5.00025,0,0,1-5,5"/><path class="a" d="M150.33333,277.5a5.00025,5.00025,0,0,1,5,5"/><path class="a" d="M145.33333,282.5a5,5,0,0,1,5-5"/><path class="a" d="M150.33333,287.43333a5,5,0,0,1-5-5"/><path class="a" d="M155.33333,282.43333a5.00024,5.00024,0,0,1-5,5"/><path class="a" d="M340.33333,277.5a5,5,0,0,0-5,5"/><path class="a" d="M345.33333,282.5a5.00025,5.00025,0,0,0-5-5"/><path class="a" d="M340.33333,287.43333a5.00024,5.00024,0,0,0,5-5"/><path class="a" d="M335.33333,282.43333a5,5,0,0,0,5,5"/><path class="a" d="M300.33333,227.5a5,5,0,0,0-5,5"/><path class="a" d="M305.33333,232.5a5.00025,5.00025,0,0,0-5-5"/><path class="a" d="M300.33333,237.56667a5.00025,5.00025,0,0,0,5-5"/><path class="a" d="M295.33333,232.56667a5,5,0,0,0,5,5"/><path class="a" d="M250.33333,277.5a5,5,0,0,0-5,5"/><path class="a" d="M255.33333,282.5a5.00025,5.00025,0,0,0-5-5"/><path class="a" d="M250.33333,287.43333a5.00024,5.00024,0,0,0,5-5"/><path class="a" d="M245.33333,282.43333a5,5,0,0,0,5,5"/><path class="a" d="M200.33333,227.5a5.00025,5.00025,0,0,1,5,5"/><path class="a" d="M195.33333,232.5a5,5,0,0,1,5-5"/><path class="a" d="M200.33333,237.56667a5,5,0,0,1-5-5"/><path class="a" d="M205.33333,232.56667a5.00025,5.00025,0,0,1-5,5"/><path class="a" d="M350,192.77067c-25.73333-16.37334-68.73333-50.66667-117.66667-14a53.332,53.332,0,0,1-64,0h0C120.76,143.11733,79.18667,174.224,50,192.77067"/></svg>